<?xml version="1.0" encoding="utf-8"?>
<!-- Generator: Adobe Illustrator 18.1.0, SVG Export Plug-In . SVG Version: 6.00 Build 0)  -->
<svg version="1.1" id="Ebene_1" xmlns="http://www.w3.org/2000/svg" xmlns:xlink="http://www.w3.org/1999/xlink" x="0px" y="0px"
	 viewBox="0 0 186.8 719.8" enable-background="new 0 0 186.8 719.8" xml:space="preserve">
<path fill="#FFFFFF" d="M177.3,713.5v-65.3L93.5,578c-21-17.6-33.9-33.8-33.9-53.8c0-18.5,14.4-10.8,30.7,2.9l86.9,72.9v-65.3
	l-98.5-82.7c-45.2-37.9-70.6-38.8-70.6,4.5c0,24.8,10.7,49.7,30.4,81.1L12.9,516v59.6L177.3,713.5"/>
<path fill="#FFFFFF" d="M76.6,378.9C59,393.6,48,391.9,48,372.4c0-15.4,13.5-40.2,28.5-52.8V378.9z M182,262.2
	c0-38.3-13.5-68.4-54.3-45.4v62.4c9.7-3.5,14.4,2,14.4,12.4c0,17.3-12.9,43.1-32.3,59.4V226.5C50.2,275.5,8.2,347.5,8.2,408.4
	c0,52.7,34.5,64.2,88.5,18.9C151.8,381,182,314.9,182,262.2"/>
<path fill="#FFFFFF" d="M12.9,45.6v65.3h79.1c25.4,0,39.5,6,39.5,24.8c0,15.7-7.2,23.5-29.8,23.5H12.9v65.3h100.1
	c47.1,0,69-23.2,69-59c0-27-6.3-43-28.9-59.3h24.2V45.6H12.9z"/>
</svg>
