<?xml version="1.0" encoding="utf-8"?>
<!-- Generator: Adobe Illustrator 18.1.0, SVG Export Plug-In . SVG Version: 6.00 Build 0)  -->
<svg version="1.1" id="Ebene_1" xmlns="http://www.w3.org/2000/svg" xmlns:xlink="http://www.w3.org/1999/xlink" x="0px" y="0px"
	 viewBox="-11 291 505 59" enable-background="new -11 291 505 59" xml:space="preserve">
<g>
	<path fill="#FFFFFF" d="M340.7,338h14.5v-18.8c0-4.6,1.3-7.6,5.6-7.6c4.3,0,5.3,3.3,5.3,6.9V338h14.5v-22.1
		c0-10.2-4.6-15.9-14.2-15.9c-5.6,0-9.2,2.3-12.6,6.9v-5.6h-13.2L340.7,338L340.7,338z"/>
	<path fill="#FFFFFF" d="M404.1,315.5c3.3-4,7.9-6.3,12.2-6.3c3.3,0,4,3,1,6.3H404.1z M407.4,327.1c-3,2.3-5.9,3.3-8.3,3.3
		c-4,0-5-3-1.3-7.3h28.1c11.6-13.2,11.2-22.8-2.6-22.8c-11.9,0-27.4,7.6-37.7,19.8s-6.9,19.2,5,19.2c8.6,0,20.5-3,30.7-12.2
		C421.3,327.1,407.4,327.1,407.4,327.1z"/>
	<path fill="#FFFFFF" d="M460.6,301.3h-14.5l14.9,17.8c4.6,5.6,5.9,8.9,2,8.9c-3.6,0-6.6-1.7-10.9-6.6l-16.8-19.8h-14.5l18.8,22.5
		c8.9,10.6,18.2,15.5,26.1,15.5c5.9,0,8.6-1.3,7.9-6.6l4.6,5.3h13.5L460.6,301.3z"/>
</g>
<g>
	<path fill="#FFFFFF" d="M-7.7,338H6.8L23,319.2c4-4.6,7.6-7.6,12.2-7.6c4.3,0,2.3,3.3-0.7,6.9L18.1,338h14.5l18.5-22.1
		c8.6-10.2,8.6-15.9-1-15.9c-5.6,0-11.2,2.3-18.2,6.9l5-5.6H23.7L-7.7,338"/>
	<path fill="#FFFFFF" d="M67.6,315.5c-3.3-4-3-6.3,1.3-6.3c3.3,0,8.9,3,11.9,6.3H67.6z M93.7,339.3c8.6,0,15.2-3,10.2-12.2H90
		c0.7,2.3-0.3,3.3-2.6,3.3c-4,0-9.6-3-13.2-7.3h28.1c-10.9-13.2-27.1-22.8-41-22.8c-11.9,0-14.5,7.6-4.3,19.8
		C67,332.4,81.8,339.3,93.7,339.3"/>
	<path fill="#FFFFFF" d="M142.3,301.3h-14.5v17.8c0,5.6-1.3,8.9-5.6,8.9c-3.6,0-5.3-1.7-5.3-6.6v-19.8h-14.5v22.5
		c0,10.6,5.3,15.5,13.2,15.5c5.9,0,9.6-1.3,13.2-6.6v5.3h13.5L142.3,301.3L142.3,301.3z"/>
</g>
<g>
	<path fill="#FFFFFF" d="M193.3,338h14.5l-15.9-18.8c-4-4.6-5.3-7.6-0.7-7.6c4.3,0,7.9,3.3,10.9,6.9l16.5,19.5h14.5l-18.5-22.1
		c-8.6-10.2-17.8-15.9-27.4-15.9c-5.6,0-7.3,2.3-6.6,6.9l-5-5.6h-13.2L193.3,338z"/>
	<path fill="#FFFFFF" d="M235.5,315.5c0-4,2.3-6.3,6.9-6.3c3.3,0,6.6,3,6.6,6.3H235.5z M241.8,339.3c8.6,0,17.8-3,20.5-12.2h-13.9
		c-1,2.3-3.3,3.3-5.6,3.3c-4,0-7.3-3-7.3-7.3h28.1c0.3-13.2-7.9-22.8-21.8-22.8c-11.9,0-20.8,7.6-20.8,19.8
		C220.7,332.4,229.9,339.3,241.8,339.3"/>
	<path fill="#FFFFFF" d="M319.4,301.3h-14.5L290,319.2c-4.6,5.6-8.9,8.9-12.9,8.9c-3.6,0-4-1.7,0.3-6.6l16.8-19.8h-14.5L261,324.1
		c-9.2,10.2-8.3,15.2,0,15.2c5.9,0,10.9-1.3,18.8-6.6l-4.6,5.3h13.5L319.4,301.3z"/>
</g>
</svg>
