<?xml version="1.0" encoding="utf-8"?>
<!-- Generator: Adobe Illustrator 18.1.0, SVG Export Plug-In . SVG Version: 6.00 Build 0)  -->
<svg version="1.1" id="Ebene_1" xmlns="http://www.w3.org/2000/svg" xmlns:xlink="http://www.w3.org/1999/xlink" x="0px" y="0px"
	 viewBox="0 0 186.8 719.8" enable-background="new 0 0 186.8 719.8" xml:space="preserve">
<path fill="#FFFFFF" d="M177.9,575.3v-65.3l-83.8,70.3c-21,17.6-33.9,23.1-33.9,3c0-18.5,14.4-35,30.7-48.7l86.9-72.9v-65.3
	l-98.5,82.7C34.3,517.1,8.8,558.8,8.8,602.1c0,24.8,10.7,31.8,30.4,30l-25.7,21.6v59.6L177.9,575.3z"/>
<path fill="#FFFFFF" d="M77.2,386.9c-17.6,0-28.5-11-28.5-30.4c0-15.4,13.5-28.9,28.5-28.9V386.9z M182.6,358.7
	c0-38.3-13.5-79.7-54.3-91v62.4c9.7,4.7,14.4,14.1,14.4,24.5c0,17.3-12.9,32.3-32.3,32.3V262.4C50.9,261.5,8.8,298.2,8.8,359
	c0,52.7,34.5,93.2,88.5,93.2C152.5,452.2,182.6,411.4,182.6,358.7"/>
<path fill="#FFFFFF" d="M13.6,12v65.3l79.1,66.3c25.4,21.3,39.5,39.1,39.5,58c0,15.7-7.2,17.5-29.8-1.5l-88.8-74.5v65.3l100.1,84
	c47.1,39.5,69,34.7,69-1.1c0-27-6.3-48.2-28.9-83.5l24.2,20.3v-60.5L13.6,12z"/>
</svg>
