<?xml version="1.0" encoding="utf-8"?>
<!-- Generator: Adobe Illustrator 18.1.0, SVG Export Plug-In . SVG Version: 6.00 Build 0)  -->
<svg version="1.1" id="Ebene_1" xmlns="http://www.w3.org/2000/svg" xmlns:xlink="http://www.w3.org/1999/xlink" x="0px" y="0px"
	 viewBox="0 0 186.8 719.8" enable-background="new 0 0 186.8 719.8" xml:space="preserve">
<path fill="#FFFFFF" d="M178.5,710.3v-65.3H94.8c-21,0-33.9-5.3-33.9-25.4c0-18.5,14.4-22.9,30.7-22.9h86.9v-65.3H80
	c-45.2,0-70.6,20.4-70.6,63.7c0,24.8,10.7,40.8,30.4,55.5H14.1v59.6H178.5z"/>
<path fill="#FFFFFF" d="M77.8,427.3c-17.6-14.7-28.5-34.9-28.5-54.4c0-15.4,13.5-17.5,28.5-4.9V427.3z M128.9,413.4
	c9.7,12.9,14.4,26.2,14.4,36.6c0,17.3-12.9,21.5-32.3,5.2V330.6C51.5,279.7,9.4,281.1,9.4,342c0,52.7,34.5,122.1,88.5,167.4
	c55.2,46.3,85.3,30.8,85.3-21.9c0-38.3-13.5-91-54.3-136.5V413.4z"/>
<path fill="#FFFFFF" d="M14.1,175.4v65.3l79.1-66.3c25.4-21.3,39.5-27.2,39.5-8.4c0,15.7-7.2,29.6-29.8,48.5L14.1,289v65.3l100.1-84
	c47.1-39.5,69-81.1,69-116.9c0-27-6.3-37.7-28.9-35.1L178.5,98V37.5L14.1,175.4z"/>
</svg>
