<?xml version="1.0" encoding="utf-8"?>
<!-- Generator: Adobe Illustrator 18.0.0, SVG Export Plug-In . SVG Version: 6.00 Build 0)  -->
<!DOCTYPE svg PUBLIC "-//W3C//DTD SVG 1.1//EN" "http://www.w3.org/Graphics/SVG/1.1/DTD/svg11.dtd">
<svg version="1.1" id="Ebene_1" xmlns="http://www.w3.org/2000/svg" xmlns:xlink="http://www.w3.org/1999/xlink" x="0px" y="0px"
	 viewBox="0 0 377.5 239" enable-background="new 0 0 377.5 239" xml:space="preserve">
<path fill="#FFFFFF" d="M82.9,126l-6.8,58.8H57c-1.7-9-3.3-19.3-4.6-30.8c-0.6,4.9-2,15.2-4.3,30.8h-19L22.3,126h14.9l1.6,20.5
	l1.6,19.8c0.6-10.2,2-23.7,4.2-40.3h15.9c0.2,1.7,0.8,8.2,1.7,19.4l1.7,22.4c0.9-14.2,2.3-28.1,4.3-41.8H82.9"/>
<rect x="86" y="126" fill="#FFFFFF" width="15.3" height="58.8"/>
<polygon fill="#FFFFFF" points="122.8,126 122.8,173.1 132.1,173.1 132.1,184.9 107.5,184.9 107.5,126 "/>
<path fill-rule="evenodd" clip-rule="evenodd" fill="#FFFFFF" d="M151.1,136.1v38.7c2.2,0,3.6-0.4,4.1-1.3c0.5-0.9,0.8-3.3,0.8-7.2
	v-22.9c0-2.7-0.1-4.4-0.3-5.1c-0.2-0.8-0.6-1.3-1.2-1.6C153.9,136.3,152.8,136.1,151.1,136.1 M135.8,126h11.4c7.4,0,12.4,0.3,15,1
	c2.6,0.7,4.6,1.8,6,3.3c1.4,1.6,2.2,3.3,2.5,5.2c0.3,1.9,0.5,5.6,0.5,11.2v20.6c0,5.3-0.3,8.8-0.8,10.6c-0.5,1.8-1.3,3.2-2.6,4.2
	c-1.2,1-2.8,1.7-4.6,2.1c-1.8,0.4-4.6,0.6-8.2,0.6h-19.3V126z"/>
<polygon fill="#FFFFFF" points="213.4,126 204.6,152.6 214.2,184.9 198.4,184.9 192.3,159.6 192.3,184.9 176.9,184.9 176.9,126 
	192.3,126 192.3,148.9 199.1,126 "/>
<path fill-rule="evenodd" clip-rule="evenodd" fill="#FFFFFF" d="M236.6,141.1c0-2.7-0.2-4.5-0.5-5.2c-0.3-0.8-0.9-1.2-1.9-1.2
	c-0.8,0-1.4,0.3-1.9,0.9c-0.4,0.6-0.6,2.4-0.6,5.5v27.5c0,3.4,0.1,5.5,0.4,6.3c0.3,0.8,0.9,1.2,2,1.2c1,0,1.7-0.5,2-1.4
	c0.3-0.9,0.4-3.1,0.4-6.6V141.1 M251.9,160.5c0,5.9-0.1,10.1-0.4,12.6c-0.3,2.4-1.1,4.7-2.6,6.7c-1.5,2-3.4,3.6-5.9,4.7
	c-2.5,1.1-5.4,1.6-8.7,1.6c-3.1,0-6-0.5-8.5-1.5c-2.5-1-4.5-2.6-6-4.6c-1.5-2.1-2.4-4.3-2.7-6.7c-0.3-2.4-0.4-6.7-0.4-12.7v-10.1
	c0-5.9,0.1-10.1,0.4-12.5c0.3-2.5,1.2-4.7,2.6-6.8c1.5-2,3.5-3.6,6-4.7c2.5-1.1,5.4-1.6,8.7-1.6c3.2,0,6,0.5,8.5,1.6
	c2.5,1,4.5,2.6,6.1,4.6c1.5,2.1,2.4,4.3,2.7,6.7c0.3,2.4,0.4,6.7,0.4,12.7V160.5z"/>
<path fill="#FFFFFF" d="M292.7,147.7h-15.3v-5.3c0-3.4-0.1-5.5-0.4-6.3c-0.3-0.8-1-1.3-2.1-1.3c-0.9,0-1.6,0.4-1.9,1.1
	c-0.3,0.7-0.5,2.6-0.5,5.6v28.2c0,2.6,0.2,4.4,0.5,5.2c0.3,0.8,1,1.2,2,1.2c1.1,0,1.9-0.5,2.3-1.4c0.4-0.9,0.6-2.8,0.6-5.5v-7h-3.1
	v-8.9h17.9v31.6h-9.6l-1.4-4.2c-1,1.8-2.4,3.2-4,4.1c-1.6,0.9-3.4,1.3-5.6,1.3c-2.6,0-5-0.6-7.2-1.9c-2.2-1.3-3.9-2.8-5.1-4.7
	c-1.2-1.8-1.9-3.8-2.2-5.8c-0.3-2-0.4-5.1-0.4-9.1v-17.5c0-5.6,0.3-9.7,0.9-12.2c0.6-2.5,2.3-4.9,5.2-7c2.9-2.1,6.6-3.2,11.2-3.2
	c4.5,0,8.2,0.9,11.2,2.8c3,1.8,4.9,4,5.8,6.6c0.9,2.5,1.3,6.2,1.3,11V147.7"/>
<polygon fill="#FFFFFF" points="298.7,126 324.2,126 324.2,137.8 314,137.8 314,149 323.5,149 323.5,160.2 314,160.2 314,173.1 
	325.2,173.1 325.2,184.9 298.7,184.9 "/>
<polygon fill="#FFFFFF" points="344.9,126 344.9,173.1 354.2,173.1 354.2,184.9 329.6,184.9 329.6,126 "/>
<path fill-rule="evenodd" clip-rule="evenodd" fill="#FFFFFF" d="M43.3,87.5c-0.8-6.7-1.6-14.9-2.3-24.7
	c-1.6,11.2-2.5,19.5-2.9,24.7H43.3 M51.4,49.7l8.8,58.8H44.5l-0.8-10.6h-5.5l-0.9,10.6H21.5l7.8-58.8H51.4z"/>
<polygon fill="#FFFFFF" points="104.9,49.7 96.1,76.2 105.7,108.5 89.9,108.5 83.7,83.3 83.7,108.5 68.4,108.5 68.4,49.7 83.7,49.7 
	83.7,72.5 90.5,49.7 "/>
<path fill-rule="evenodd" clip-rule="evenodd" fill="#FFFFFF" d="M132.3,87.5c-0.8-6.7-1.6-14.9-2.3-24.7
	c-1.6,11.2-2.5,19.5-2.9,24.7H132.3 M140.4,49.7l8.8,58.8h-15.7l-0.8-10.6h-5.5l-0.9,10.6h-15.8l7.8-58.8H140.4z"/>
<path fill-rule="evenodd" clip-rule="evenodd" fill="#FFFFFF" d="M172.7,59.7v38.7c2.2,0,3.6-0.4,4.1-1.3c0.5-0.9,0.8-3.3,0.8-7.2
	V67c0-2.7-0.1-4.4-0.3-5.1c-0.2-0.8-0.6-1.3-1.2-1.6C175.5,59.9,174.3,59.7,172.7,59.7 M157.4,49.7h11.4c7.4,0,12.4,0.3,15,1
	c2.6,0.7,4.6,1.8,6,3.3c1.4,1.6,2.2,3.3,2.5,5.2c0.3,1.9,0.5,5.6,0.5,11.2V91c0,5.3-0.3,8.8-0.8,10.6c-0.5,1.8-1.3,3.2-2.6,4.2
	c-1.2,1-2.8,1.7-4.6,2.1c-1.8,0.4-4.6,0.6-8.2,0.6h-19.3V49.7z"/>
<polygon fill="#FFFFFF" points="204.1,49.7 229.6,49.7 229.6,61.4 219.4,61.4 219.4,72.6 229,72.6 229,83.8 219.4,83.8 219.4,96.7 
	230.6,96.7 230.6,108.5 204.1,108.5 "/>
<path fill="#FFFFFF" d="M287.8,49.7v58.8h-13.4V68.8l-5.3,39.7h-9.5L254,69.7v38.8h-13.4V49.7h19.8c0.6,3.5,1.2,7.7,1.9,12.5l2.1,15
	l3.5-27.5H287.8"/>
<rect x="299.6" y="49.7" fill="#FFFFFF" width="15.3" height="58.8"/>
<polygon fill="#FFFFFF" points="326.6,49.7 352.1,49.7 352.1,61.4 341.9,61.4 341.9,72.6 351.5,72.6 351.5,83.8 341.9,83.8 
	341.9,96.7 353.2,96.7 353.2,108.5 326.6,108.5 "/>
</svg>
