<?xml version="1.0" encoding="utf-8"?>
<!-- Generator: Adobe Illustrator 18.1.0, SVG Export Plug-In . SVG Version: 6.00 Build 0)  -->
<svg version="1.1" id="Ebene_1" xmlns="http://www.w3.org/2000/svg" xmlns:xlink="http://www.w3.org/1999/xlink" x="0px" y="0px"
	 viewBox="0 10.8 30 8.5" enable-background="new 0 10.8 30 8.5" xml:space="preserve">
<path fill="#FFFFFF" d="M11.7,16.7l2.5-2.2c-0.3-0.2-0.6-0.3-0.9-0.3c-1,0-1.7,0.8-1.7,1.7C11.5,16.1,11.6,16.4,11.7,16.7 M12.7,17
	l-0.3,0.3c0.2,0.1,0.4,0.2,0.6,0.2c0.4,0.1,0.9,0,1.4-0.3c0.1-0.1,0.3-0.2,0.4-0.3v1c-0.4,0.3-0.9,0.4-1.5,0.4
	c-1.3,0-2.4-0.9-2.6-2.2c-0.2,1.3-1.3,2.2-2.6,2.2s-2.3-0.9-2.6-2.1c-0.2,1.2-1.3,2.1-2.5,2.1c-0.7,0-1.3-0.3-1.7-0.7v0.5h-1v-6.6h1
	V14c0.5-0.4,1.1-0.7,1.7-0.7c1.3,0,2.3,0.9,2.5,2.1c0.2-1.2,1.3-2.1,2.6-2.1s2.3,0.9,2.6,2.2c0.2-1.3,1.3-2.2,2.6-2.2
	c0.9,0,1.7,0.4,2.2,1.1c0.1-0.6,0.7-1.1,1.4-1.1c0.8,0,1.4,0.5,1.5,1.3h-0.8c0-0.3-0.3-0.6-0.7-0.6c-0.3,0-0.6,0.3-0.6,0.6
	c0,1,2,0.4,2.2,2.1v-3.3h0.9v0.5c0.4-0.4,0.9-0.6,1.5-0.6c1.1,0,2,0.9,2,2.1v0.2c0.2-1.3,1.3-2.2,2.6-2.2c0.9,0,1.7,0.4,2.2,1.1v-1
	h0.9V14c0.4-0.4,0.6-0.5,1.2-0.5v0.8c-0.7,0-1.2,0.6-1.2,1.3v3h-0.9v-3.8L25,17.1l-0.3,0.3c0.2,0.1,0.4,0.2,0.6,0.2
	c0.4,0.1,0.9,0,1.4-0.3c0.1-0.1,0.3-0.2,0.4-0.3v1c-0.4,0.3-0.9,0.4-1.5,0.4c-1.3,0-2.5-1-2.6-2.2v2.1h-1v-3c0-0.7-0.6-1.2-1.3-1.2
	s-1.3,0.6-1.3,1.3v3h-0.9v-1.2c-0.1,0.6-0.7,1.3-1.6,1.3s-1.7-0.7-1.7-1.6v-0.1h0.9c0,0.1,0.1,0.9,0.8,0.8c0.4,0,0.7-0.3,0.7-0.7
	c0-1.2-2.2-0.5-2.2-2.3v-0.1L12.7,17z M6.4,15.9c0,0.9,0.8,1.7,1.7,1.7s1.7-0.8,1.7-1.7S9,14.2,8.1,14.2S6.4,15,6.4,15.9 M1.3,15.9
	c0,0.9,0.8,1.7,1.7,1.7s1.7-0.8,1.7-1.7S3.9,14.2,3,14.2S1.3,15,1.3,15.9 M24,16.7l2.5-2.2c-0.3-0.2-0.6-0.3-0.9-0.3
	c-1,0-1.7,0.8-1.7,1.7C23.8,16.1,23.9,16.4,24,16.7"/>
</svg>
