<?xml version="1.0" encoding="utf-8"?>
<!-- Generator: Adobe Illustrator 18.1.0, SVG Export Plug-In . SVG Version: 6.00 Build 0)  -->
<svg version="1.1" id="Ebene_1" xmlns="http://www.w3.org/2000/svg" xmlns:xlink="http://www.w3.org/1999/xlink" x="0px" y="0px"
	 viewBox="0 18.3 30 11" enable-background="new 0 18.3 30 11" xml:space="preserve">
<g>
	<path fill="#FFFFFF" d="M7.4,27c-0.3,0.3-1,0.9-2.1,1.2c-0.5,0.1-0.9,0.1-1.4,0.1H0.4v-8.9h2.9c0.3,0,0.5,0,0.8,0
		c0.4,0,1.9,0.1,3,1c0.2,0.1,0.4,0.4,0.7,0.8c0.3,0.5,0.7,1.3,0.7,2.6C8.4,25.4,7.8,26.4,7.4,27z M5.6,21.9
		c-0.1-0.2-0.4-0.5-0.9-0.6c-0.4-0.1-0.8-0.1-1.2-0.1H2.6v5.3h0.7c0.7,0,1.4,0,2-0.5c0.5-0.3,0.8-1,0.8-2.2
		C6.1,23.1,6.1,22.5,5.6,21.9z"/>
	<path fill="#FFFFFF" d="M16.3,27.5c-0.5,0.4-1.3,1-2.8,1c-0.5,0-2-0.1-3.2-1.3C9.1,26,9,24.3,9,23.8s0.1-1.7,0.8-2.9
		c0.5-0.7,1.5-1.8,3.6-1.8c1.7,0,2.7,0.8,3.2,1.2c0.9,0.9,1.3,2.3,1.3,3.6C18,25.2,17.5,26.7,16.3,27.5z M15.2,21.8
		c-0.1-0.2-0.4-0.5-0.9-0.7c-0.4-0.2-0.7-0.2-0.9-0.2c-0.5,0-0.8,0.2-1,0.3c-0.9,0.5-1.2,1.6-1.2,2.6c0,1.2,0.4,1.9,0.7,2.3
		c0.4,0.4,0.9,0.6,1.5,0.6c0.3,0,1-0.1,1.5-0.7c0.5-0.5,0.7-1.3,0.7-2C15.8,22.9,15.5,22.1,15.2,21.8z"/>
	<path fill="#FFFFFF" d="M26.3,27c-0.4,0.5-1.5,1.5-3.3,1.5c-0.3,0-1.1,0-1.8-0.4c-2.4-1.1-2.5-3.7-2.5-4.4c0-0.5,0.1-2,1.1-3.2
		c0.4-0.5,1.4-1.5,3.2-1.5c1.2,0,2.4,0.5,3.2,1.4c0.3,0.4,0.5,0.8,0.6,0.9L25,22.3c-0.1-0.3-0.2-0.4-0.3-0.5
		c-0.2-0.2-0.7-0.9-1.6-0.9c-0.3,0-0.8,0.1-1.4,0.5c-0.3,0.4-0.7,1.1-0.7,2.3c0,0.1,0,0.3,0,0.6c0.2,1.2,0.7,1.8,1.2,2.1
		c0.2,0.1,0.5,0.3,1,0.3c1.3,0,1.7-1,2-1.3l1.8,0.9C26.6,26.7,26.4,26.9,26.3,27z"/>
	<path fill="#FFFFFF" d="M27.8,28.3v-2.1h2v2.1H27.8z"/>
</g>
</svg>
