<?xml version="1.0" encoding="utf-8"?>
<!-- Generator: Adobe Illustrator 18.1.0, SVG Export Plug-In . SVG Version: 6.00 Build 0)  -->
<svg version="1.1" id="Ebene_1" xmlns="http://www.w3.org/2000/svg" xmlns:xlink="http://www.w3.org/1999/xlink" x="0px" y="0px"
	 viewBox="0 10.5 30 8" enable-background="new 0 10.5 30 8" xml:space="preserve">
<g>
	<rect x="0.6" y="11.2" fill="#FFFFFF" width="28.8" height="6.6"/>
	<g>
		<path d="M2.2,16.5v-4H5v0.8h-2v0.9h1.9v0.8H2.9v0.9h2v0.8H2.2z"/>
		<path d="M5.7,16.5v-4h0.9v4H5.7z"/>
		<path d="M10.1,16.5L8.2,14v2.6H7.4v-4h0.9L10,15v-2.4h0.9v4L10.1,16.5L10.1,16.5z"/>
		<path d="M11.7,16.5v-4h2.1c0.8,0,1.2,0.5,1.2,1.1c0,0.5-0.3,0.9-0.7,1c0.4,0.1,0.8,0.5,0.8,1c0,0.6-0.4,1.1-1.2,1.1H11.7
			L11.7,16.5z M14.1,13.8c0-0.3-0.2-0.5-0.5-0.5h-1.1v0.9h1.1C13.9,14.1,14.1,14,14.1,13.8z M14.2,15.4c0-0.3-0.2-0.5-0.5-0.5h-1.1
			v1h1.1C14,15.9,14.2,15.7,14.2,15.4z"/>
		<path d="M15.7,16.5v-4h0.9v3.3h1.7v0.8H15.7z"/>
		<path d="M18.9,16.5v-4h0.9v4H18.9z"/>
		<path d="M20.3,14.6c0-1.3,1-2.1,2.1-2.1c0.9,0,1.4,0.5,1.6,1l-0.8,0.4c-0.2-0.3-0.5-0.6-1-0.6c-0.8,0-1.3,0.6-1.3,1.3
			c0,0.8,0.5,1.3,1.3,1.3c0.4,0,0.8-0.3,1-0.6l0.8,0.4c-0.3,0.5-0.8,1-1.6,1C21.2,16.6,20.3,15.8,20.3,14.6z"/>
		<path d="M27.1,16.5l-1.3-1.6l-0.3,0.4v1.3h-0.9v-4h0.9v1.8l1.4-1.8H28l-1.6,1.9l1.7,2.1H27.1z"/>
	</g>
</g>
</svg>
