<?xml version="1.0" encoding="utf-8"?>
<!-- Generator: Adobe Illustrator 18.1.0, SVG Export Plug-In . SVG Version: 6.00 Build 0)  -->
<svg version="1.1" id="Ebene_1" xmlns="http://www.w3.org/2000/svg" xmlns:xlink="http://www.w3.org/1999/xlink" x="0px" y="0px"
	 viewBox="0 6.1 30 19.9" enable-background="new 0 6.1 30 19.9" xml:space="preserve">
<g>
	<polygon fill="#FFFFFF" points="18.9,25.5 22.7,25.5 22.7,17.7 29.8,17.7 29.8,14.3 22.7,14.3 22.7,10 30,10 30,6.7 18.9,6.7 	"/>
	<polygon fill="#FFFFFF" points="11.7,10 13.9,10 13.9,9.3 12.4,9.3 12.4,8.5 13.9,8.5 13.9,7.9 12.4,7.9 12.4,7.2 13.9,7.2 
		13.9,6.5 11.7,6.5 	"/>
	<path fill="#FFFFFF" d="M1.6,9.3V7.1h0.5c0.8,0,1,0.6,1,1.1s-0.3,1.1-1,1.1H1.6L1.6,9.3z M0.9,10h1.3c0.9,0,1.6-0.6,1.6-1.7
		S3.2,6.6,2.2,6.6H0.9V10z"/>
	<path fill="#FFFFFF" d="M3.3,12.8c0-0.3-0.2-0.9-1.2-0.9c-0.9,0-1.2,0.6-1.2,1.1c0,0.4,0.3,0.7,0.6,0.9l0.7,0.3
		c0.4,0.1,0.4,0.2,0.4,0.4C2.6,14.9,2.3,15,2,15s-0.6-0.2-0.6-0.5H0.8c0,0.3,0.1,1.1,1.3,1.1c0.9,0,1.2-0.6,1.2-1
		c0-0.5-0.3-0.8-0.8-0.9l-0.6-0.2c-0.2-0.1-0.4-0.2-0.4-0.4s0.2-0.4,0.6-0.4c0.3,0,0.5,0.2,0.5,0.4L3.3,12.8z"/>
	<rect x="6.5" y="17" fill="#FFFFFF" width="0.7" height="3.4"/>
	<path fill="#FFFFFF" d="M2.6,24.3h0.8C3.3,24.6,3.1,25,2.5,25s-1-0.6-1-1.2c0-0.7,0.4-1.2,1-1.2c0.5,0,0.7,0.2,0.8,0.5L4,23
		c-0.1-0.4-0.4-1.1-1.5-1.1c-1,0-1.6,0.9-1.6,1.7c0,0.9,0.7,1.7,1.6,1.7s1.6-0.6,1.6-1.9H2.6C2.6,23.8,2.6,24.3,2.6,24.3z"/>
	<polygon fill="#FFFFFF" points="13.2,25.6 13.9,25.6 13.9,22.2 13.3,22.2 13.3,24.5 13.3,24.5 11.9,22.2 11.1,22.2 11.1,25.6 
		11.8,25.6 11.8,23.3 11.8,23.3 	"/>
</g>
</svg>
