<?xml version="1.0" encoding="utf-8"?>
<!-- Generator: Adobe Illustrator 18.1.0, SVG Export Plug-In . SVG Version: 6.00 Build 0)  -->
<svg version="1.1" id="Ebene_1" xmlns="http://www.w3.org/2000/svg" xmlns:xlink="http://www.w3.org/1999/xlink" x="0px" y="0px"
	 viewBox="0 3.9 30 22.4" enable-background="new 0 3.9 30 22.4" xml:space="preserve">
<g>
	<path fill="#FFFFFF" d="M18.6,4.7L0.8,12.3l5.5,13h10.8l8.1-3.4L24.8,25c-0.1,0.1-0.2,0.1-0.3,0.2v0.1h1.1v-0.1
		c-0.1-0.1-0.2-0.1-0.4-0.2l0.2-2.9l0,0l1.3,3.2h0.2l1.3-3.3l0,0l0.3,2.9c-0.2,0.1-0.3,0.1-0.4,0.2v0.1h1.2v-0.1
		C29.2,25,29.1,25,29,24.9l-0.4-3.2c0.2-0.1,0.3-0.1,0.4-0.2v-0.1h-0.9l-1.2,3.1l-1.2-3.1l0,0L18.6,4.7z"/>
</g>
</svg>
