<?xml version="1.0" encoding="utf-8"?>
<!-- Generator: Adobe Illustrator 17.1.0, SVG Export Plug-In . SVG Version: 6.00 Build 0)  -->
<!DOCTYPE svg PUBLIC "-//W3C//DTD SVG 1.1//EN" "http://www.w3.org/Graphics/SVG/1.1/DTD/svg11.dtd">
<svg version="1.1" id="Ebene_1" xmlns="http://www.w3.org/2000/svg" xmlns:xlink="http://www.w3.org/1999/xlink" x="0px" y="0px"
	 viewBox="0 0 54 38" enable-background="new 0 0 54 38" xml:space="preserve">
<g>
	<path d="M33.4,0.5l-32,13.6l9.9,23.4h19.4l14.6-6.2L44.6,37c-0.2,0.1-0.4,0.2-0.6,0.3v0.2H46v-0.2c-0.2-0.1-0.4-0.2-0.7-0.3
		l0.4-5.3h0l2.3,5.8h0.4l2.3-5.9h0l0.6,5.3c-0.3,0.1-0.6,0.2-0.8,0.3v0.2h2.2v-0.2c-0.2-0.1-0.4-0.2-0.6-0.3l-0.7-5.7
		c0.3-0.1,0.5-0.2,0.8-0.3v-0.2h-1.7l-2.1,5.5l-2.2-5.5h0L33.4,0.5z"/>
</g>
</svg>
