<?xml version="1.0" encoding="utf-8"?>
<!-- Generator: Adobe Illustrator 18.0.0, SVG Export Plug-In . SVG Version: 6.00 Build 0)  -->
<!DOCTYPE svg PUBLIC "-//W3C//DTD SVG 1.1//EN" "http://www.w3.org/Graphics/SVG/1.1/DTD/svg11.dtd">
<svg version="1.1" id="Ebene_1" xmlns="http://www.w3.org/2000/svg" xmlns:xlink="http://www.w3.org/1999/xlink" x="0px" y="0px"
	 viewBox="0 0 282 132" enable-background="new 0 0 282 132" xml:space="preserve">
<g>
	<defs>
		<rect id="SVGID_1_" x="14.5" y="12.3" width="242.6" height="102.4"/>
	</defs>
	<clipPath id="SVGID_2_">
		<use xlink:href="#SVGID_1_"  overflow="visible"/>
	</clipPath>
	<path clip-path="url(#SVGID_2_)" fill="#FFFFFF" d="M230.4,69.1c-5.8,0-9.2-5.2-9.2-14v-0.9c0-8.9,3.3-14,9.2-14s9.3,5.2,9.3,14
		v0.9C239.7,63.9,236.2,69.1,230.4,69.1 M224.1,71.6c1.9,0.4,3.9,0.8,6.6,0.8c12.6,0,21.9-7.1,21.9-17.5c0-4.3-1.6-7.1-4.6-10.4
		l9.2-7.6h-26.8c-13.6,0-22.6,8.4-22.6,17.9c0,7.5,5.5,13.5,12.7,15.8l-13.9,13.1l14,4.4c-10.6,1.8-15.9,7.7-15.9,13.3
		c0,7,7.8,13.3,26.1,13.3c16.2,0,25.7-6.5,25.7-16.1c0-6.2-4.2-11.6-16.6-15.4l-15.9-5V71.6z M235.5,92.8c9.5,3,11.4,6.3,11.4,9.3
		c0,4.5-4.5,8.2-14.8,8.2c-10.5,0-15.3-4.4-15.3-10c0-5.1,4-8.2,9.1-10.5L235.5,92.8z M170.5,88.1l-7.8-6.8V46.6
		c1.6-1,4.8-2.3,11.7-2.3c6.6,0,9.7,2.9,9.7,11.3v25.6l-7.8,6.8h27.9l-7.8-6.8V49.9c0-10.7-3.8-14.3-11.7-14.3
		c-8.6,0-17.1,4.5-22,8.9V35l-19.4,9.1l7.1,3.6v33.7l-7.8,6.8H170.5z M85.8,62.5c0,15.2,11.8,26.9,26.9,26.9
		c15.1,0,26.9-11.7,26.9-26.9c0-15.2-11.8-26.9-26.9-26.9C97.6,35.6,85.8,47.3,85.8,62.5 M112.7,84.9c-8.4,0-12.6-7.5-12.6-19.8
		v-5.2c0-12.3,4.2-19.8,12.6-19.8c8.4,0,12.6,7.5,12.6,19.8v5.2C125.4,77.4,121.1,84.9,112.7,84.9 M45.6,88.1l-8.7-7.8V49.1L62,80.3
		l-8.7,7.8h35L80,80.8L50,43.8l17.1-16l19.1-15.6H60.4v14.1l-23.5,22V20.1l8.7-7.8H14.5l8.7,7.8v60.3l-8.7,7.8H45.6z"/>
</g>
</svg>
