<?xml version="1.0" encoding="utf-8"?>
<!-- Generator: Adobe Illustrator 18.1.0, SVG Export Plug-In . SVG Version: 6.00 Build 0)  -->
<svg version="1.1" id="svg3359" xmlns:svg="http://www.w3.org/2000/svg"
	 xmlns="http://www.w3.org/2000/svg" xmlns:xlink="http://www.w3.org/1999/xlink" x="0px" y="0px" viewBox="291 -40.2 30 30"
	 enable-background="new 291 -40.2 30 30" xml:space="preserve">
<g id="layer1" transform="translate(-43.75,-476.78125)">
	<path id="path110" fill="none" stroke="#FFFFFF" stroke-width="0.6415" stroke-miterlimit="3.864" d="M338.4,437.6h22.6v17.1
		c0,6.3-5.1,11.3-11.3,11.3c-6.2,0-11.3-5-11.3-11.3C338.4,454.7,338.4,444.6,338.4,437.6z"/>
	<path id="path112" fill="#FFFFFF" d="M348.9,440.9c0.6,0.3,0.7,0.4,0.9,0.7c0.1,0.3,0.1,0.5,0.1,1.7c0,0.7-0.1,1.4-0.1,1.4
		l-0.3,0.1c0,0,0.1-2.6,0-2.8c-0.1-0.3-0.5-0.6-0.7-0.8c-0.2-0.1-0.5-0.2-0.7-0.1c-0.8,0.3-0.4,1.1-0.6,2.3c0.1,0,0.1,0,0.3,0.1
		c0,0.3,0,0.4,0.1,0.7c0.7,0.1,1.1,0,1.2,0c0.2,0.2,0.4,0.7,0.5,0.7l-0.2,0.1c-0.1,0-0.3-0.4-0.4-0.5c-0.6,0.7-1.6,0.9-2.5,1
		c-0.5,0.1-2.3-0.3-2.6-0.6c-0.4-0.2-0.2-0.6-0.2-0.8c0,0-0.9-0.7-1.2-1c-0.3,0.4,0.3,0.6,0.4,0.8c0.2,0.3,0,0.7,0.5,1l0,0.2
		c-0.7-0.2-0.5-0.9-0.6-1.1c-0.1-0.2-0.2-0.2-0.4-0.3c-0.3-0.2-0.6-0.5-0.9-0.7c0,0.1-0.1,0.1-0.1,0.2c0.4,0.3,0.7,0.5,0.9,0.6
		c0,0,0,0.2,0,0.1c-0.2-0.1-0.8-0.5-0.9-0.5c0,0.1-0.1,0.1-0.1,0.2c0.4,0.3,0.8,0.5,0.9,0.6c0.2,0.1,0.5,0.1,0.6,0.2
		c0,0,0,0.1,0,0.2c-0.3-0.1-0.5-0.2-0.7-0.2c0,0,0,0-0.1,0.1c0.2,0,0.6,0.2,0.6,0.2s-0.1,0.1-0.1,0.2c-0.3-0.1-0.3-0.2-0.6-0.2
		c0,0.1-0.1,0.1-0.1,0.2l2.1,1.1c0-0.4,0-0.6,0-0.9c0.4,0.1,0.3,0.6,0.3,1c0,0.9,0,7.8,0,12.4c0.8,0,1.4-0.2,1.8-1
		c0.1-0.1,0.3-0.4,0.3-1.6c0-1.3,0-6.2,0-6.2c0-0.3,0.2-0.7,0.5-1c0.2-0.2,0.4-0.3,0.8-0.4v10.1l5.2,0v-10.3
		c0.3,0.1,0.6,0.4,0.8,0.6c0.2,0.2,0.4,0.5,0.5,1c0.1,0.6,0.1,6.1,0.1,6.2c0,0.9-0.1,1.5,0.3,2.1c0.3,0.4,1.2,0.7,1.7,0.7v-13.4
		c0.1,0,0.2-0.1,0.3-0.1v1.1l1.2-0.7c-0.1-0.1-0.1-0.3-0.3-0.5c-0.1,0.4-0.4,0.5-0.7,0.6c0-0.1,0-0.1,0-0.2c0.3-0.1,0.5-0.1,0.6-0.4
		c0-0.2-0.1-0.3,0-0.5c0-0.1,0.7-0.5,0.9-0.6c0,0.1,0.1,0.1,0.1,0.2c-0.5,0.3-0.5,0.3-0.8,0.5l0.5,1l1.4-0.8l-1-2l-1.4,0.7
		c0.1,0.2,0.1,0.3,0.2,0.5c-0.3,0.2-0.5,0.3-0.5,0.3c-0.3,0.1,0.2,0.6-0.2,0.7c-1.1,0.4-2.4,0.6-3.4,0.4c-0.8-0.1-1.3-0.7-1.4-0.9
		c-0.4-0.8,1.5-0.6,2.3-0.6c-0.1-0.6-0.2-0.8-0.4-1.2c-0.5-0.8-0.8-1.1-1.6-1.4C350.9,441,349.5,440.9,348.9,440.9L348.9,440.9z
		 M348.3,441.4c0.3,0.2,0.2,0.2,0.2,0.5C348.3,441.8,348.2,441.7,348.3,441.4z M348,441.5c0.3,0.2,0.3,0.2,0.2,0.5
		C348,441.8,348,441.7,348,441.5z M348.9,441.5c0.2,0.2,0.2,0.2,0.2,0.5C348.9,441.8,348.9,441.7,348.9,441.5z M348.6,441.5
		c0.3,0.2,0.2,0.2,0.2,0.5C348.6,441.8,348.6,441.8,348.6,441.5z M348.4,442.3c0.2,0,0.3,0.1,0.4,0.3c-0.3,0.2-0.4,0.2-0.7,0v0
		C348.2,442.4,348.2,442.3,348.4,442.3C348.4,442.3,348.4,442.3,348.4,442.3L348.4,442.3z M347.4,445.6c0.1,0.3,0.3,0.5,0.6,0.7
		c0.4,0.3,1,0.5,1.8,0.5c0.9,0,1.6-0.3,2-0.7c0.2-0.2,0.3-0.3,0.4-0.5l0.3,0.1c-0.1,0.3-0.2,0.5-0.5,0.7c-0.4,0.4-1.1,0.7-2.1,0.8
		v3.9h2.2v0.4H350v6.9h-0.4v-6.9h-2.1V451h2.1v-3.9c-0.8,0-1.4-0.3-1.8-0.6c-0.4-0.2-0.6-0.5-0.7-0.9L347.4,445.6L347.4,445.6z"/>
	<path id="path114" fill="#FFFFFF" stroke="#FFFFFF" stroke-width="7.727319e-002" stroke-miterlimit="3.864" d="M348,458.9
		c-0.1,0-0.2,0.5-0.4,0.7c-0.2,0.3-1.1,0.8-1.1,2c0.6-0.4,0.9-0.6,1.5-1.1c0.5-0.4,0.8-0.4,0.8-0.5v-1.1H348z M350.6,458.9
		c0,0.7,0,1,0.1,1.1c0.1,0.2,0.4,0.2,0.9,0.6c0.5,0.4,0.8,0.6,1.3,0.9c-0.1-1.3-0.4-1.2-0.8-1.7c-0.3-0.2-0.6-0.9-0.6-0.9H350.6z"/>
</g>
</svg>
