<?xml version="1.0" encoding="utf-8"?>
<!-- Generator: Adobe Illustrator 18.1.0, SVG Export Plug-In . SVG Version: 6.00 Build 0)  -->
<svg version="1.1" id="Ebene_1" xmlns="http://www.w3.org/2000/svg" xmlns:xlink="http://www.w3.org/1999/xlink" x="0px" y="0px"
	 viewBox="0 0 143 40" enable-background="new 0 0 143 40" xml:space="preserve">
<path fill="#1D1D1B" d="M56,27.9l11.9-10.7c-1.3-0.8-2.9-1.3-4.5-1.3c-4.6,0-8.3,3.6-8.3,8.1C55,25.4,55.4,26.7,56,27.9 M60.7,29.6
	L59.1,31c0.9,0.5,1.8,0.8,2.8,1c1.9,0.5,4.3,0.1,6.6-1.2c0.7-0.4,1.3-0.9,1.9-1.3v4.8c-2,1.3-4.4,2.1-7.1,2.1
	c-6.3,0-11.5-4.4-12.5-10.3c-0.9,6-6,10.6-12.3,10.6c-6.1,0-11.1-4.4-12.2-10.2c-1,5.8-6,10.2-12,10.2c-3.2,0-6.1-1.2-8.3-3.3v2.5
	H1.5V4.5h4.6v10.7c2.2-2,5.1-3.3,8.3-3.3c6,0,11,4.4,12,10.2c1.1-5.8,6.1-10.2,12.2-10.2c6.1,0,11.2,4.5,12.2,10.3
	c0.9-6,6.2-10.6,12.6-10.6c4.4,0,8.2,2.1,10.5,5.4c0.7-3,3.5-5.3,6.9-5.3c3.7,0,6.9,2.3,7,6.4h-4c-0.2-1.5-1.5-2.8-3.1-2.8
	c-1.6,0-2.9,1.4-2.9,2.8c0,5,9.5,2,10.5,10V12.2h4.4v2.3c1.9-1.9,4.3-2.9,7.1-2.9c5.2,0,9.4,4.4,9.4,9.8v0.9
	c0.9-6,6.2-10.6,12.6-10.6c4.3,0,8.1,2.1,10.4,5.3v-4.7h4.4v2.3c1.8-1.7,3-2.4,5.8-2.4v3.8c-3.2,0.1-5.8,2.8-5.8,6l0,14.1h-4.4v-18
	l-13,11.7l-1.6,1.5c0.9,0.5,1.8,0.8,2.8,1c1.9,0.5,4.3,0.1,6.6-1.2c0.7-0.4,1.3-0.9,1.9-1.3v4.8c-2,1.3-4.4,2.1-7.1,2.1
	c-6.4,0-11.7-4.6-12.6-10.6l0,10.2h-4.4l0-14.1c0-3.3-2.7-5.9-6-5.9c-3.3,0-6.1,2.7-6.1,6l0,14.1h-4.4v-5.5
	c-0.5,2.8-3.4,6.2-7.6,6.2c-4.2,0-8-3.3-8-7.5c0-0.2,0-0.4,0-0.6h4.1c-0.1,0.5,0.4,4.1,3.9,4c2,0,3.5-1.4,3.5-3.2
	c0-5.8-10.5-2.2-10.5-10.9c0-0.2,0-0.4,0-0.5L60.7,29.6z M30.4,24.3c0,4.5,3.6,8.1,8.1,8.1c4.5,0,8.1-3.6,8.1-8.1
	c0-4.5-3.6-8.1-8.1-8.1C34,16.2,30.4,19.8,30.4,24.3 M6.3,24.3c0,4.5,3.6,8.1,8,8.1c4.4,0,8-3.6,8-8.1c0-4.5-3.6-8.1-8-8.1
	C9.9,16.2,6.3,19.8,6.3,24.3 M114.4,27.9l11.9-10.7c-1.3-0.8-2.9-1.3-4.5-1.3c-4.6,0-8.3,3.6-8.3,8.1
	C113.4,25.4,113.8,26.7,114.4,27.9"/>
</svg>
